<svg id="svg7637" xmlns="http://www.w3.org/2000/svg" viewBox="0 0 55.46 55.46"><defs><style>.cls-1{fill:#fff;}.cls-2{fill:#8f6d6d;}.cls-3{fill:#efe6da;}.cls-4{fill:#5f2f34;}.cls-5{fill:#361f21;}.cls-6{fill:#ccb9a2;}</style></defs><title>Artboard 1</title><g id="layer1"><g id="g8509"><path id="path2906" class="cls-1" d="M54.76,27.73a27,27,0,1,1-27-27,27,27,0,0,1,27,27"/><path id="path2908" class="cls-2" d="M23.51,48.92a.34.34,0,0,1-.65,0,2.85,2.85,0,0,1-.08-.51,2.69,2.69,0,0,1,0-.57c.05-.3.5-.31.62-.06a1.84,1.84,0,0,1,.07,1.16Zm-4-6.87c-.21-.46-.4-.93-.57-1.4-.08-.21.25-.32.35-.14a6.68,6.68,0,0,1,.67,1.37.24.24,0,0,1-.45.17ZM18,40.3c-.23-.68-.48-1.37-.74-2-.08-.23.23-.42.36-.18a10.11,10.11,0,0,1,.91,2.11c.09.34-.42.45-.53.12Zm-7.31-11c-.29-.21-.57-.43-.87-.62s0-.49.24-.37a2.2,2.2,0,0,1,1,.68c.13.2-.14.44-.33.31ZM9.76,43.88a1.24,1.24,0,0,1-.31-.72c0-.23.3-.39.4-.15a2,2,0,0,0,.31.5.27.27,0,0,1-.4.37ZM8.33,28.58a10.63,10.63,0,0,0-2.19-.73.29.29,0,0,1,0-.57,4.51,4.51,0,0,1,2.41.78c.28.18.07.64-.24.52ZM33.46,52c-1.37-2.2-.07-5.23.53-7.48.46-1.71,1.8-4.93,2.39-7.52a18.24,18.24,0,0,1-1.72,3.3,90.22,90.22,0,0,1-7.28,10.33c-.32.4-.82.42-1,0-1.32-4.25-2.28-7.41-4.67-10.78a31.72,31.72,0,0,1-5-9.48l-.85.67c-.23.18-.52-.13-.31-.32s.68-.59,1-.87a8.71,8.71,0,0,1-.2-1.37L16,28.8c-.21.17-.49-.14-.28-.31s.48-.38.72-.55a5.85,5.85,0,0,1,.15-1.29c0-.18.09-.36.13-.54-.59.92-1.21,1.62-1.66,1.48l-.7-.22-.17.16c-.2.19-.45-.1-.29-.3-1.29-.37-2.59-.7-3.9-1a62.86,62.86,0,0,0-9.17-1.4,27.73,27.73,0,0,0-.15,2.9,27.3,27.3,0,0,0,.37,4.46A10.25,10.25,0,0,1,4.6,35.73a18.69,18.69,0,0,1,3.13,6.79A16.54,16.54,0,0,1,8,46.23a26.63,26.63,0,0,0,2,2c-.06-.25-.12-.5-.17-.75s.52-.66.69-.26l.93,2.18A26.86,26.86,0,0,0,22.71,54.3a11.17,11.17,0,0,1-.08-3.2.47.47,0,0,1,.94,0c0,.65,0,1.32,0,2a8.12,8.12,0,0,0,.31,1.4q.64.09,1.32.15c.37-.12.74-.23,1.13-.33l.21,0a.44.44,0,0,1-.14-.72,23.32,23.32,0,0,0,2.41-2.14,16,16,0,0,0,1.73-2.54.45.45,0,0,1,.81.37c-.54,2.22-2.68,3.8-4.46,5h0a3.8,3.8,0,0,1,1.66.5,27.06,27.06,0,0,0,6.54-1A7,7,0,0,1,33.46,52"/><path id="path2910" class="cls-2" d="M3.72,36.2a14.47,14.47,0,0,0-2.38-2.54A27,27,0,0,0,7,45.06a13.15,13.15,0,0,0-.57-3.4A19.67,19.67,0,0,0,3.72,36.2"/><path id="path2912" class="cls-2" d="M16.71,18.9a1.63,1.63,0,0,1-.33-1.5,1.42,1.42,0,0,1,1.6-.72A2.76,2.76,0,0,1,19.57,18a2.23,2.23,0,0,1,.05,2c-.6,1.12-2.41-.29-2.91-1Zm17.16.21a.81.81,0,0,1,1-.09,1.1,1.1,0,0,1,.49,1,.91.91,0,0,1-.68.82.83.83,0,0,1-.84-.26,1,1,0,0,1-.26-.76,1,1,0,0,1,.31-.68Zm2.78-.22c.49-.89,1.5-1.94,2.54-1.44,1.19.56.72,2.12,0,2.79s-2.12,1.24-2.63.08a2,2,0,0,1,.14-1.43Zm-15.14.77A5.67,5.67,0,0,1,23,19.45a.88.88,0,0,1,.23-.46.9.9,0,0,1,1.67.19.83.83,0,0,1,0,.15c0,.15,0,.23,0,.25v0a.57.57,0,0,0,0-.12.49.49,0,0,1,0,.12v0a1,1,0,0,1-.31.8,1.44,1.44,0,0,1,.16.69,5,5,0,0,1-.19,1.33c0,.1-.07.23-.1.37,1.53-1.54,4-3.53,6-3.39,1.5.09,2.29.84,3.84,3,0-.77.62-2.23,1.55-1.91a3.07,3.07,0,0,1,1.71,1.63,2.94,2.94,0,0,0,0-.42A4.07,4.07,0,0,0,40,20.32a3.23,3.23,0,0,0,0-3.39c-.81-1.19-2.18-1-3.36-.55a1.57,1.57,0,0,0-.39.22c-1.64-2.24-5.65-2.79-8.1-3a10.75,10.75,0,0,0-7.63,2.55,2.18,2.18,0,0,0-.51-.31A3.89,3.89,0,0,0,17,15.8a2.62,2.62,0,0,0-1.18,3,4.29,4.29,0,0,0,2.33,2.84,3.76,3.76,0,0,0,.07.5,5.16,5.16,0,0,1,3.32-2.49"/><path id="path2914" class="cls-3" d="M32.12,28.12c-.84,2.11-3.78,2.09-5,.44-.28-.38.25-.88.54-.5a2.07,2.07,0,0,0,2.12.93,4.72,4.72,0,0,0,1.87-1.16C31.86,27.67,32.23,27.84,32.12,28.12Zm3.68-3.8c-.22.09-.45.17-.68.24a2.56,2.56,0,0,1-2.46,2,2.78,2.78,0,0,1-2.4-1l-.79.1A5.17,5.17,0,0,1,26,26.9a2.61,2.61,0,0,1-2.06-1.2,10.39,10.39,0,0,1-3.07-.94l-.22,0a6.45,6.45,0,0,0,.47.95l.44-.11c.22-.06.3.29.08.35l-.31.09c2.94,4.4,10.22,5.35,14.7,8.48.26-.09.61-.5.65-.17A7.67,7.67,0,0,1,36.38,37a26.78,26.78,0,0,0,1.68-7.16c-.85-.56-1.74-1.1-2.61-1.67a.22.22,0,0,1,.24-.37c.81.43,1.64.88,2.45,1.37,0-.52.09-1,.12-1.51A11.82,11.82,0,0,0,35.93,27c-.24,0-.24-.41,0-.39a8.65,8.65,0,0,1,2.35.49c0-.09,0-.17,0-.26,0-.24,0-.53,0-.85a10.83,10.83,0,0,0-2.46-.42.19.19,0,0,1,0-.38,8.42,8.42,0,0,1,2.43.26,8.81,8.81,0,0,0-.76-3.3,2.59,2.59,0,0,1-1.76,2.19"/><path id="path2916" class="cls-3" d="M16.81,25.8c0,.1,0,.2-.08.31l.23-.37-.15.06"/><path id="path2918" class="cls-3" d="M26.56,26.07a5.15,5.15,0,0,0,1.07-.29,18.7,18.7,0,0,1-2.7,0,2.43,2.43,0,0,0,1.63.26"/><path id="path2920" class="cls-3" d="M18.48,22.86a2.56,2.56,0,0,1-.28-.71A11.87,11.87,0,0,0,17,25.2l.38-.14c.47-.85.88-1.7,1.13-2.2"/><path id="path2922" class="cls-3" d="M34.12,25.22a1.54,1.54,0,0,0,.26-.44,22.88,22.88,0,0,1-3.3.63,2.18,2.18,0,0,0,1.47.46,2.14,2.14,0,0,0,1.57-.65"/><path id="path2924" class="cls-3" d="M20.6,24.79a13.38,13.38,0,0,0-3.64.95l-.23.37c0,.18-.09.36-.13.54a5.85,5.85,0,0,0-.15,1.29,14.23,14.23,0,0,1,4.62-2.19,7.1,7.1,0,0,1-.47-1"/><path id="path2926" class="cls-3" d="M36.63,34.38c0-.33-.38.08-.65.17-4.48-3.13-11.76-4.07-14.7-8.48a14.7,14.7,0,0,0-4.81,2.37,8.77,8.77,0,0,0,.2,1.36,13,13,0,0,1,4.77-2.55.19.19,0,0,1,.09.37,16.4,16.4,0,0,0-4.74,2.7,31.72,31.72,0,0,0,5,9.48c2.39,3.37,3.35,6.53,4.67,10.78.14.46.64.44,1,0a90.22,90.22,0,0,0,7.28-10.33A18.24,18.24,0,0,0,36.38,37a7.67,7.67,0,0,0,.25-2.61"/><path id="path2928" class="cls-3" d="M18.48,22.86c-.25.5-.66,1.35-1.13,2.2a15.15,15.15,0,0,1,2.82-.64,4.55,4.55,0,0,1-1.69-1.56"/><path id="path2930" class="cls-3" d="M18.66,22.51a.37.37,0,0,1,.54-.09.58.58,0,0,1,.87.36,7.29,7.29,0,0,0,.38,1.61c.39-.05.78-.08,1.16-.1s.24.38,0,.4l-.77.07a10.39,10.39,0,0,0,3.07.94,2,2,0,0,1,.24-2.37c.16-.21.62-.16.56.18-.11.68-.59,1.58,0,2.16a1.33,1.33,0,0,0,.19.14,18.7,18.7,0,0,0,2.7,0,3.41,3.41,0,0,0,.95-.53,4.37,4.37,0,0,0,1.09-1.55A2.77,2.77,0,0,1,27.54,22a.51.51,0,0,1,.32-.75,4.84,4.84,0,0,1,4.64,0,.52.52,0,0,1,.16.71,4.19,4.19,0,0,1-2.35,1.71h0v0a0,0,0,0,0,0,0v.19a2,2,0,0,0,.76,1.5,22.88,22.88,0,0,0,3.3-.63,3.06,3.06,0,0,0,.06-1.45c0-.3.41-.55.55-.21a2.61,2.61,0,0,1,.13,1.45l.68-.25a2.58,2.58,0,0,0,1.76-2.19,3,3,0,0,0-1.71-1.63c-.93-.32-1.51,1.15-1.55,1.91-1.55-2.19-2.34-2.93-3.84-3-2-.13-4.43,1.85-6,3.39,0-.14.07-.27.1-.37a5,5,0,0,0,.19-1.33,1.33,1.33,0,0,0-.16-.69.93.93,0,0,1-1,.23,1,1,0,0,1-.67-.72,1.09,1.09,0,0,1,0-.44,5.67,5.67,0,0,0-1.47.21,5.12,5.12,0,0,0-3.31,2.49,2.56,2.56,0,0,0,.28.71l.18-.35"/><path id="path2932" class="cls-3" d="M29.47,25.61l.79-.09A2.58,2.58,0,0,1,30,25a2.85,2.85,0,0,1-.5.6"/><path id="path2934" class="cls-3" d="M20.17,24.42l.28,0a7.29,7.29,0,0,1-.38-1.61.58.58,0,0,0-.87-.36.37.37,0,0,0-.54.09l-.18.35a4.55,4.55,0,0,0,1.69,1.56"/><path id="path2936" class="cls-2" d="M26,26.9a5.17,5.17,0,0,0,3.52-1.29h0c-.59.07-1.19.13-1.8.17a5.15,5.15,0,0,1-1.07.29,2.43,2.43,0,0,1-1.63-.26c-.35,0-.7-.06-1-.11A2.61,2.61,0,0,0,26,26.9"/><path id="path2938" class="cls-2" d="M31.66,27.83A4.72,4.72,0,0,1,29.79,29a2.05,2.05,0,0,1-2.12-.93c-.29-.38-.82.12-.54.5,1.21,1.65,4.15,1.67,5-.44.11-.28-.26-.45-.46-.29"/><path id="path2940" class="cls-2" d="M32.66,26.55a2.56,2.56,0,0,0,2.46-2l-.74.22a1.54,1.54,0,0,1-.26.44,2.14,2.14,0,0,1-1.57.65,2.18,2.18,0,0,1-1.47-.46l-.82.11a2.8,2.8,0,0,0,2.4,1"/><path id="path2942" class="cls-2" d="M35,23.12c-.14-.34-.59-.09-.56.21a2.94,2.94,0,0,1,0,1.45l.74-.22A2.59,2.59,0,0,0,35,23.12"/><path id="path2944" class="cls-2" d="M29.47,25.61A3.13,3.13,0,0,0,30,25a2.25,2.25,0,0,0,.29.5l.82-.1a2,2,0,0,1-.77-1.5,1.28,1.28,0,0,0,0-.19,0,0,0,0,1,0,0v-.06l-.23,0a2.82,2.82,0,0,1-.4,0,4.4,4.4,0,0,1-1.1,1.55,3.27,3.27,0,0,1-.95.53c.61,0,1.21-.1,1.8-.17h0"/><path id="path2946" class="cls-2" d="M24.74,25.67c-.64-.57-.16-1.48,0-2.16.06-.34-.4-.39-.56-.18a2,2,0,0,0-.24,2.38c.34.05.69.08,1,.1a1.33,1.33,0,0,1-.19-.14"/><path id="path2948" class="cls-4" d="M30.09,23.42a.25.25,0,0,1,.22.23,4.19,4.19,0,0,0,2.35-1.71.52.52,0,0,0-.16-.71,4.84,4.84,0,0,0-4.64,0,.51.51,0,0,0-.32.75,2.77,2.77,0,0,0,2.13,1.69,1.09,1.09,0,0,0,.08-.15.26.26,0,0,1,.34-.13"/><path id="path2950" class="cls-4" d="M30.07,23.68a2,2,0,0,0,.24,0,.25.25,0,0,0-.22-.23.26.26,0,0,0-.34.13l-.08.15a2.68,2.68,0,0,0,.4,0"/><path id="path2952" class="cls-5" d="M24.94,19.55v0"/><path id="path2954" class="cls-5" d="M24.94,19.55a.49.49,0,0,0,0-.12.57.57,0,0,1,0,.12"/><path id="path2956" class="cls-5" d="M24.94,19.58s0-.1,0-.25a.83.83,0,0,0,0-.15A.9.9,0,0,0,23.21,19a.88.88,0,0,0-.23.46,1.84,1.84,0,0,1,1.65.93,1,1,0,0,0,.31-.8"/><path id="path2958" class="cls-5" d="M23.76,19.6a2.25,2.25,0,0,0-.78-.15,1.09,1.09,0,0,0,0,.44,1,1,0,0,0,.67.72,1,1,0,0,0,1-.23,2.24,2.24,0,0,0-.87-.78"/><path id="path2960" class="cls-5" d="M34.66,20.81a.91.91,0,0,0,.68-.82,1.1,1.1,0,0,0-.49-1,.81.81,0,0,0-1,.09,1,1,0,0,0-.31.68,1,1,0,0,0,.26.76.83.83,0,0,0,.84.26"/><path id="path2962" class="cls-4" d="M19.62,19.92a2.23,2.23,0,0,0-.05-2A2.76,2.76,0,0,0,18,16.68a1.42,1.42,0,0,0-1.6.72,1.63,1.63,0,0,0,.33,1.5c.5.73,2.31,2.14,2.91,1"/><path id="path2964" class="cls-4" d="M39.14,20.24c.77-.67,1.24-2.23,0-2.79-1-.5-2,.55-2.54,1.44a2,2,0,0,0-.14,1.43c.51,1.16,2,.51,2.63-.08"/><path id="path2966" class="cls-6" d="M16.81,25.8c.05-.2.1-.4.16-.6a7.77,7.77,0,0,0-3.06,2h0l.46.15a9.29,9.29,0,0,1,2.44-1.58"/><path id="path2968" class="cls-6" d="M42,33.19c.16.2.51,0,.37-.26a13,13,0,0,0-4.22-3.77c0,.22,0,.45-.08.68A16.92,16.92,0,0,1,42,33.19"/><path id="path2970" class="cls-6" d="M44,29.44a.23.23,0,0,0,.33-.31,12.53,12.53,0,0,0-6-3.69c0,.18,0,.36,0,.53A13,13,0,0,1,44,29.44"/><path id="path2972" class="cls-6" d="M43,31.14c.14.2.47,0,.34-.25a9.62,9.62,0,0,0-5-3.81c0,.19,0,.38,0,.57A10.77,10.77,0,0,1,43,31.14"/><path id="path2974" class="cls-6" d="M15.73,28.49c-.21.17.07.48.28.31l.46-.37c0-.16,0-.33,0-.49-.24.18-.49.36-.72.55"/><path id="path2976" class="cls-6" d="M15.63,30.67c-.21.19.08.5.31.32l.85-.67c-.05-.18-.09-.35-.12-.52-.36.28-.7.57-1,.87"/><path id="path2978" class="cls-6" d="M14.2,27.53l.17-.16-.46-.14c-.16.2.09.49.29.3"/><path id="path2980" class="cls-6" d="M35.89,25.17a.19.19,0,0,0,0,.38,10.74,10.74,0,0,1,2.46.42c0-.17,0-.35,0-.53a8.07,8.07,0,0,0-2.42-.27"/><path id="path2982" class="cls-6" d="M20.6,24.79l.22,0-.29-.15a1.22,1.22,0,0,0,.07.17"/><path id="path2984" class="cls-6" d="M35.93,27a11.79,11.79,0,0,1,2.33.66c0-.19,0-.39,0-.57A8.65,8.65,0,0,0,36,26.59c-.26,0-.26.36,0,.4"/><path id="path2986" class="cls-6" d="M17,25.74l.39-.68L17,25.2c-.06.2-.11.4-.16.6l.15-.06"/><path id="path2988" class="cls-6" d="M21.59,26c.22-.06.14-.41-.08-.35s-.29.08-.44.12l.21.32.31-.09"/><path id="path2990" class="cls-6" d="M35.45,28.16c.87.57,1.76,1.11,2.61,1.68,0-.23,0-.46.08-.68-.81-.49-1.64-.94-2.45-1.37-.25-.13-.48.22-.24.37"/><path id="path2992" class="cls-6" d="M21.44,27.25a13,13,0,0,0-4.77,2.55c0,.17.07.34.12.52a16.4,16.4,0,0,1,4.74-2.7.19.19,0,0,0-.09-.37"/><path id="path2994" class="cls-6" d="M20.53,24.62l-.36-.2a15.15,15.15,0,0,0-2.82.64l-.39.68a13,13,0,0,1,3.64-.95c0-.06-.05-.12-.07-.17"/><path id="path2996" class="cls-6" d="M21.07,25.75a14.23,14.23,0,0,0-4.62,2.19c0,.16,0,.33,0,.49a14.88,14.88,0,0,1,4.81-2.36l-.21-.32"/><path id="path2998" class="cls-6" d="M20.82,24.76l.77-.07c.26,0,.28-.42,0-.4s-.77.06-1.16.1a2.09,2.09,0,0,0,.08.23l.29.14"/><path id="path3000" class="cls-6" d="M20.53,24.62a1.55,1.55,0,0,1-.08-.23l-.28,0,.36.2"/><path id="path3002" class="cls-4" d="M26.9,54.26a2,2,0,0,0-.34,0,.38.38,0,0,0,.34,0"/><path id="path3004" class="cls-4" d="M10,28.26c-.25-.12-.49.22-.24.37s.58.41.87.62.46-.11.33-.31a2.2,2.2,0,0,0-1-.68"/><path id="path3006" class="cls-4" d="M19.27,40.51c-.1-.18-.43-.07-.35.14.17.47.36.94.57,1.4a.24.24,0,0,0,.45-.17,6.68,6.68,0,0,0-.67-1.37"/><path id="path3008" class="cls-4" d="M22.82,47.82a2.69,2.69,0,0,0,0,.57,2.85,2.85,0,0,0,.08.51.34.34,0,0,0,.65,0,1.84,1.84,0,0,0-.07-1.16c-.12-.25-.57-.24-.62.06"/><path id="path3010" class="cls-4" d="M23.59,53.1c-.05-.65,0-1.32,0-2a.47.47,0,0,0-.94,0,11.25,11.25,0,0,0,.08,3.21l1.19.19a8.12,8.12,0,0,1-.31-1.4"/><path id="path3012" class="cls-4" d="M17.57,38.07c-.13-.24-.44,0-.36.18.26.68.51,1.37.74,2,.11.33.62.22.53-.12a10.11,10.11,0,0,0-.91-2.11"/><path id="path3014" class="cls-4" d="M26.9,54.26h0c1.78-1.21,3.92-2.78,4.46-5a.45.45,0,0,0-.81-.38,15.67,15.67,0,0,1-1.73,2.55,24.55,24.55,0,0,1-2.41,2.14.44.44,0,0,0,.14.72l.34,0"/><path id="path3016" class="cls-4" d="M9.85,43c-.1-.24-.45-.08-.4.15a1.24,1.24,0,0,0,.31.72.27.27,0,0,0,.4-.37,2,2,0,0,1-.31-.5"/><path id="path3018" class="cls-4" d="M3.72,36.2A19.67,19.67,0,0,1,6.4,41.66,13.15,13.15,0,0,1,7,45.06c.34.4.69.79,1,1.17a16.54,16.54,0,0,0-.28-3.71A18.69,18.69,0,0,0,4.6,35.73a10.25,10.25,0,0,0-3.54-3.54c.08.49.18,1,.28,1.47A14.47,14.47,0,0,1,3.72,36.2"/><path id="path3020" class="cls-4" d="M8.57,28.06a4.51,4.51,0,0,0-2.41-.78.29.29,0,0,0,0,.57,10.63,10.63,0,0,1,2.19.73.29.29,0,0,0,.24-.52"/><path id="path3022" class="cls-4" d="M10.56,47.17c-.17-.4-.77-.14-.69.26s.11.5.17.75c.47.41,1,.8,1.45,1.17l-.93-2.18"/><path id="path3024" class="cls-2" d="M27.73,1.38A26.35,26.35,0,1,0,54.08,27.73,26.38,26.38,0,0,0,27.73,1.38Zm0,54.08A27.73,27.73,0,1,1,55.46,27.73,27.76,27.76,0,0,1,27.73,55.46"/></g></g></svg>